<svg xmlns="http://www.w3.org/2000/svg" width="512" height="512" viewBox="0 0 512 512" version="1.1"><path d="M 0 256.002 L 0 512.004 256.250 511.752 L 512.500 511.500 512.752 255.750 L 513.004 0 256.502 0 L 0 0 0 256.002 M 0.492 256.500 C 0.492 397.300, 0.608 454.751, 0.750 384.170 C 0.892 313.588, 0.892 198.388, 0.750 128.170 C 0.608 57.951, 0.492 115.700, 0.492 256.500 M 238.768 81.041 C 178.082 87.391, 125.906 123.432, 98.554 177.892 C 90.499 193.932, 84.933 211.639, 81.861 231 C 80.170 241.657, 80.182 270.798, 81.883 281.500 C 88.082 320.523, 105.658 354.814, 133.173 381.569 C 160.393 408.037, 192.582 424.094, 230.500 430.117 C 241.202 431.818, 270.343 431.830, 281 430.139 C 318.072 424.257, 350.296 408.595, 376.658 383.645 C 428.262 334.808, 445.267 260.903, 420.296 194 C 405.057 153.172, 373.734 118.454, 334.267 98.646 C 319.834 91.402, 298.099 84.607, 281.264 82.075 C 270.861 80.510, 248.940 79.977, 238.768 81.041 M 240.709 110.724 C 240.467 111.151, 238.779 117.620, 236.959 125.099 L 233.649 138.698 224.151 141.367 C 215.244 143.871, 201.193 150.024, 192.815 155.091 L 189.130 157.319 176.315 149.675 L 163.500 142.031 152.678 152.843 L 141.856 163.655 149.576 176.465 C 157.242 189.184, 157.285 189.293, 155.593 191.887 C 151.185 198.649, 143.760 215.439, 141.360 224.072 L 138.700 233.643 124.600 237.114 L 110.500 240.585 110.500 256 L 110.500 271.415 124.600 274.886 L 138.700 278.357 141.320 287.928 C 142.878 293.615, 146.593 302.759, 150.475 310.458 L 157.009 323.416 149.858 335.458 C 145.925 342.081, 142.572 347.756, 142.406 348.069 C 142.241 348.383, 146.919 353.436, 152.803 359.300 L 163.500 369.960 176.104 362.447 L 188.707 354.933 200.104 360.885 C 206.372 364.159, 215.550 368.035, 220.500 369.499 C 225.450 370.963, 230.409 372.518, 231.519 372.954 C 233.149 373.594, 234.201 376.475, 236.975 387.898 L 240.412 402.049 255.915 401.774 L 271.418 401.500 274.887 387.400 L 278.357 373.300 287.852 370.632 C 296.741 368.133, 310.818 361.971, 319.138 356.936 L 322.777 354.734 335.561 362.439 L 348.345 370.144 359.183 359.306 L 370.020 348.469 362.510 336.083 C 358.380 329.271, 355 323.392, 355 323.019 C 355 322.647, 357.023 318.791, 359.496 314.452 C 364.378 305.886, 368.660 295.257, 371.383 284.951 L 373.113 278.403 387.307 274.909 L 401.500 271.415 401.500 256 L 401.500 240.585 387.229 237.072 L 372.958 233.559 371.952 229.530 C 368.749 216.705, 363.545 204.033, 356.873 192.815 L 354.681 189.130 362.321 176.315 L 369.960 163.500 359.300 152.803 C 353.436 146.919, 348.383 142.241, 348.069 142.406 C 347.756 142.572, 341.961 145.997, 335.192 150.017 L 322.884 157.327 319.192 155.131 C 307.771 148.339, 295.218 143.179, 282.470 140.035 L 278.441 139.042 274.929 124.771 L 271.418 110.500 256.284 110.224 C 247.960 110.073, 240.951 110.298, 240.709 110.724 M 245.277 163.127 C 240.755 163.602, 232.880 165.342, 227.777 166.994 C 218.101 170.126, 204.680 176.832, 204.822 178.464 C 204.867 178.983, 211.709 181.004, 220.026 182.954 C 229.561 185.190, 235.439 187.054, 235.937 188 C 236.372 188.825, 238.454 197.057, 240.565 206.294 L 244.402 223.088 232.288 235.202 L 220.173 247.317 202.385 243.141 C 192.602 240.845, 184.326 238.528, 183.995 237.992 C 183.664 237.456, 181.882 230.489, 180.036 222.509 C 178.190 214.529, 176.367 208, 175.985 208 C 174.529 208, 166.905 226.230, 164.831 234.672 C 161.660 247.577, 161.844 265.993, 165.273 279 C 174.339 313.392, 200.025 338.613, 234.726 347.196 C 246.947 350.219, 264.940 350.187, 277.500 347.120 C 305.272 340.338, 327.532 322.353, 339.982 296.638 C 347.962 280.156, 350.755 264.573, 348.926 246.745 C 343.622 195.063, 297.271 157.670, 245.277 163.127" stroke="none" fill="#26292c" fill-rule="evenodd"/><path d="M 242 163.627 C 230.084 165.941, 216.190 171.011, 208.288 175.929 L 203.720 178.772 219.610 182.517 C 228.350 184.577, 235.681 186.421, 235.902 186.616 C 236.123 186.811, 238.255 195.190, 240.640 205.235 L 244.977 223.500 232.738 235.643 L 220.500 247.786 202.144 243.453 C 192.048 241.071, 183.688 238.981, 183.566 238.811 C 183.443 238.640, 181.828 231.863, 179.977 223.750 C 178.126 215.637, 176.256 209, 175.822 209 C 173.394 209, 165.673 229.793, 163.920 241.053 C 162.266 251.673, 163.279 271.612, 165.949 281 C 174.749 311.945, 200.011 337.211, 231 346.060 C 241.747 349.129, 262.696 349.850, 274.090 347.544 C 312.522 339.763, 341.801 309.352, 348.025 270.750 C 349.892 259.168, 348.825 241.615, 345.590 230.704 C 340.628 213.970, 332.548 200.592, 320.362 188.939 C 308.682 177.770, 297.119 171.102, 281.296 166.410 C 274.057 164.263, 270.022 163.743, 258.500 163.472 C 250.800 163.290, 243.375 163.361, 242 163.627" stroke="none" fill="#14e350" fill-rule="evenodd"/><path d="M 238.768 81.041 C 178.082 87.391, 125.906 123.432, 98.554 177.892 C 90.499 193.932, 84.933 211.639, 81.861 231 C 80.170 241.657, 80.182 270.798, 81.883 281.500 C 88.082 320.523, 105.658 354.814, 133.173 381.569 C 160.393 408.037, 192.582 424.094, 230.500 430.117 C 241.202 431.818, 270.343 431.830, 281 430.139 C 318.072 424.257, 350.296 408.595, 376.658 383.645 C 428.262 334.808, 445.267 260.903, 420.296 194 C 405.057 153.172, 373.734 118.454, 334.267 98.646 C 319.834 91.402, 298.099 84.607, 281.264 82.075 C 270.861 80.510, 248.940 79.977, 238.768 81.041 M 240.709 110.724 C 240.467 111.151, 238.779 117.620, 236.959 125.099 L 233.649 138.698 224.151 141.367 C 215.244 143.871, 201.193 150.024, 192.815 155.091 L 189.130 157.319 176.315 149.675 L 163.500 142.031 152.678 152.843 L 141.856 163.655 149.576 176.465 C 157.242 189.184, 157.285 189.293, 155.593 191.887 C 151.185 198.649, 143.760 215.439, 141.360 224.072 L 138.700 233.643 124.600 237.114 L 110.500 240.585 110.500 256 L 110.500 271.415 124.600 274.886 L 138.700 278.357 141.320 287.928 C 142.878 293.615, 146.593 302.759, 150.475 310.458 L 157.009 323.416 149.858 335.458 C 145.925 342.081, 142.572 347.756, 142.406 348.069 C 142.241 348.383, 146.919 353.436, 152.803 359.300 L 163.500 369.960 176.104 362.447 L 188.707 354.933 200.104 360.885 C 206.372 364.159, 215.550 368.035, 220.500 369.499 C 225.450 370.963, 230.409 372.518, 231.519 372.954 C 233.149 373.594, 234.201 376.475, 236.975 387.898 L 240.412 402.049 255.915 401.774 L 271.418 401.500 274.887 387.400 L 278.357 373.300 287.852 370.632 C 296.741 368.133, 310.818 361.971, 319.138 356.936 L 322.777 354.734 335.561 362.439 L 348.345 370.144 359.183 359.306 L 370.020 348.469 362.510 336.083 C 358.380 329.271, 355 323.392, 355 323.019 C 355 322.647, 357.023 318.791, 359.496 314.452 C 364.378 305.886, 368.660 295.257, 371.383 284.951 L 373.113 278.403 387.307 274.909 L 401.500 271.415 401.500 256 L 401.500 240.585 387.229 237.072 L 372.958 233.559 371.952 229.530 C 368.749 216.705, 363.545 204.033, 356.873 192.815 L 354.681 189.130 362.321 176.315 L 369.960 163.500 359.300 152.803 C 353.436 146.919, 348.383 142.241, 348.069 142.406 C 347.756 142.572, 341.961 145.997, 335.192 150.017 L 322.884 157.327 319.192 155.131 C 307.771 148.339, 295.218 143.179, 282.470 140.035 L 278.441 139.042 274.929 124.771 L 271.418 110.500 256.284 110.224 C 247.960 110.073, 240.951 110.298, 240.709 110.724 M 254.250 162.689 C 255.213 162.941, 256.788 162.941, 257.750 162.689 C 258.712 162.438, 257.925 162.232, 256 162.232 C 254.075 162.232, 253.287 162.438, 254.250 162.689 M 319 187.313 C 319 187.485, 320.462 188.948, 322.250 190.563 L 325.500 193.500 322.563 190.250 C 319.825 187.221, 319 186.540, 319 187.313 M 232.019 235.500 L 219.538 248.500 232.475 235.789 C 239.590 228.798, 245.207 222.948, 244.956 222.789 C 244.705 222.630, 238.884 228.350, 232.019 235.500 M 162.320 256 C 162.320 259.575, 162.502 261.038, 162.723 259.250 C 162.945 257.462, 162.945 254.537, 162.723 252.750 C 162.502 250.963, 162.320 252.425, 162.320 256 M 349.252 256.500 C 349.263 258.700, 349.468 259.482, 349.707 258.238 C 349.946 256.994, 349.937 255.194, 349.687 254.238 C 349.437 253.282, 349.241 254.300, 349.252 256.500 M 251.728 349.722 C 253.503 349.943, 256.653 349.946, 258.728 349.730 C 260.802 349.513, 259.350 349.333, 255.500 349.328 C 251.650 349.324, 249.952 349.501, 251.728 349.722" stroke="none" fill="#208cbb" fill-rule="evenodd"/></svg>