<svg xmlns="http://www.w3.org/2000/svg" version="1.1" xmlns:xlink="http://www.w3.org/1999/xlink" xmlns:svgjs="http://svgjs.dev/svgjs" viewBox="0 0 800 800"><defs><linearGradient x1="50%" y1="0%" x2="50%" y2="100%" id="wwwhirl-grad"><stop stop-color="hsl(206, 75%, 49%)" stop-opacity="1" offset="45%"></stop><stop stop-color="hsl(331, 90%, 56%)" stop-opacity="1" offset="100%"></stop></linearGradient></defs><g stroke-width="2" stroke="url(#wwwhirl-grad)" fill="none" stroke-linecap="round"><path d="M-243.50006420135486 434.44950910788987C-219.12506352511303 413.97450853984674 -175.25006230787778 325.5663810871177 -126.50006095539416 336.1695063812829C-77.75005960291057 346.77263167544805 -58.25005906191711 492.2913857126116 -9.50005770943352 485.34451051988276C39.249943643050074 478.3976353271538 58.74994418404361 312.3307557199184 107.4999455365272 302.82450545618406C156.2499468890108 293.3182551924498 175.74994743000428 443.0051343452507 224.499948782488 439.71450925395806C273.2499501349715 436.42388416266544 292.7499506759649 276.7920047339578 341.49995202844855 287.0295050179794C390.2499533809321 297.26700530200094 409.7499539219257 488.85451061726155 458.4999552744092 488.85451061726155C507.24995662689275 488.85451061726155 526.7499571678862 289.95450509912837 575.4999585203699 287.0295050179794C624.2499598728534 284.1045049368304 643.7499604138468 457.6301347509958 692.4999617663306 474.81451022774627C741.2499631188143 491.99888570449673 760.7499636598077 361.4707570832219 809.4999650122913 369.5145073063817C858.249966364775 377.5582575295415 877.7499669057684 515.2526363496314 926.4999682582518 513.4245112989133C975.2499696107354 511.59638624819513 1019.1249708279706 392.54888294543014 1043.4999715042125 360.7395070629346 " transform="rotate(78, 400, 400)"></path><path d="M-227.00006431579578 433.5661954040517C-203.2500636568935 413.61619485057383 -160.50006247086938 327.4749424607353 -113.00006115306485 337.8061927473577C-65.50005983526032 348.1374430339802 -46.500059308138475 489.92494696762685 0.9999420096660288 483.15619677983966C48.49994332747059 476.3874465920525 67.49994385459246 314.5786921029513 114.99994517239702 305.31619184597946C162.49994649020158 296.05369158900754 181.49994701732345 441.90244563532644 228.999948335128 438.6961955463746C276.4999496529324 435.4899454574228 295.49995018005427 279.9511911422718 342.9999514978588 289.92619141901076C390.4999528156633 299.90119169574973 409.49995334278515 486.57619687472163 456.99995466058965 486.57619687472163C504.49995597839427 486.57619687472163 523.4999565055161 292.776191498079 570.9999578233206 289.92619141901076C618.499959141125 287.0761913399425 637.4999596682469 456.15244603066776 684.9999609860515 472.89619649519386C732.4999623038561 489.63994695971996 751.4999628309779 362.4586934312983 798.9999641487825 370.29619364873605C846.4999654665871 378.1336938661738 865.4999659937089 512.2974475883128 912.9999673115133 510.5161975388951C960.4999686293179 508.73494748947735 1003.249969815342 392.7399442713987 1026.9999704742443 361.74619341153124 " transform="rotate(76, 400, 400)"></path><path d="M-210.5000644302367 432.6828893296081C-187.37506378867397 413.2578887906954 -145.750062633861 329.38351146374737 -99.50006135073554 339.44288674282717C-53.250060067610065 349.502262021907 -34.750059554359865 487.5585158520365 11.499941728765634 480.9678906691911C57.74994301189105 474.3772654863458 76.2499435251413 316.8266361153788 122.49994480826678 307.80788586516934C168.74994609139225 298.78913561495983 187.2499466046425 440.79976455479664 233.49994788776797 437.67788946818564C279.7499491708934 434.5560143815747 298.24994968414353 283.1103851799803 344.499950967269 292.8228854494367C390.7499522503946 302.53538571889305 409.2499527636447 484.2978907615762 455.4999540467702 484.2978907615762C501.74995532989567 484.2978907615762 520.2499558431459 295.5978855264242 566.4999571262714 292.8228854494367C612.7499584093968 290.0478853724492 631.2499589226469 454.6747649397343 677.4999602057725 470.977890392036C723.7499614888981 487.28101584433773 742.2499620021482 363.4466374087693 788.4999632852737 371.077887620485C834.7499645683995 378.70913783220067 853.2499650816496 509.34226645638864 899.4999663647748 507.60789140827137C945.7499676479003 505.8735163601542 987.374968802713 392.93101322676176 1010.4999694442758 362.7528873895224 " transform="rotate(74, 400, 400)"></path><path d="M-194.00006454467763 431.79954510819186C-171.5000639204544 412.8995445838444 -131.0000627968526 331.29204231978684 -86.00006154840622 341.0795425913239C-41.00006029995981 350.867042862861 -23.000059800581226 485.19204658947353 21.999941447865126 478.77954641157C66.99994269631156 472.3670462336663 84.99994319569015 319.0745419808336 129.9999444441366 310.29954173738656C174.99994569258297 301.5245414939395 192.9999461919616 439.69704532729423 237.999947440408 436.6595452430241C282.9999486888544 433.62204515875396 300.9999491882329 286.2695410707162 345.99995043667934 295.71954133288995C390.9999516851258 305.16954159506366 408.9999521845044 482.0195465014581 453.99995343295075 482.0195465014581C498.9999546813972 482.0195465014581 516.9999551807758 298.4195414077967 561.9999564292222 295.71954133288995C606.9999576776685 293.0195412579831 624.9999581770469 453.1970457018282 669.9999594254934 469.0595461419055C714.9999606739401 484.9220465819829 732.9999611733185 364.4345432392676 777.9999624217651 371.85954344526124C822.9999636702114 379.2845436512549 840.9999641695899 506.3870471774918 885.9999654180363 504.6995471306751C930.9999666664828 503.0120470838583 971.4999677900844 393.1220440351522 993.9999684143077 363.7595432205409 " transform="rotate(72, 400, 400)"></path><path d="M-177.50006465911855 430.9162390337483C-155.62506405223485 412.541238523966 -116.25006295984423 333.2006113227989 -72.50006174607688 342.71623658679334C-28.75006053230956 352.2318618507877 -11.250060046802616 482.8256154738832 32.49994116696473 476.5912403009214C76.24994238073202 470.35686512795957 93.74994286623905 321.32248599326107 137.4999440800064 312.79123575657644C181.24994529377375 304.2599855198918 198.74994577928072 438.5943642467645 242.49994699304807 435.64123916483516C286.24994820681536 432.6881140829058 303.7499486923223 289.4287351084247 347.49994990608957 298.6162353633158C391.249951119857 307.803735618207 408.7499516053639 479.74124038831263 452.4999528191312 479.74124038831263C496.2499540328986 479.74124038831263 513.7499545184056 301.2412354361419 557.4999557321729 298.6162353633158C601.2499569459401 295.9912352904898 618.7499574314471 451.7193646108947 662.4999586452145 467.14124003874764C706.2499598589819 482.5631154666006 723.7499603444888 365.42248721673855 767.4999615582562 372.6412374170102C811.2499627720235 379.85998761728183 828.7499632575305 503.4318660455677 872.4999644712977 501.7912410000514C916.249965685065 500.15061595453506 955.6249667774557 393.31311299051526 977.4999673843395 364.76623719853205 " transform="rotate(70, 400, 400)"></path><path d="M-161.00006477355947 430.032894812332C-139.75006418401532 412.182894317115 -101.50006312283585 335.1091421788384 -59.00006194374757 344.3528924352901C-16.50006076465931 353.59664269174175 0.4999397069760221 480.4591462113203 42.99994088606428 474.4028960433002C85.49994206515254 468.3466458752801 102.4999425367879 323.5703918587159 144.99994371587616 315.28289162879366C187.49994489496447 306.99539139887145 204.49994536659977 437.491645019262 246.9999465456881 434.62289493967353C289.49994772477635 431.75414486008515 306.49994819641165 292.58789099916055 348.9999493754999 301.5128912467691C391.49995055458817 310.4378914943776 408.49995102622347 477.46289612819453 450.99995220531173 477.46289612819453C493.4999533844001 477.46289612819453 510.4999538560354 304.06289131751436 552.9999550351237 301.5128912467691C595.4999562142118 298.9628911760238 612.4999566858471 450.2416453729885 654.9999578649355 465.22289578861717C697.4999590440239 480.2041462042457 714.4999595156592 366.4103930472369 756.9999606947475 373.4228932417865C799.4999618738359 380.435393436336 816.4999623454712 500.4766467666709 858.9999635245592 498.88289672245503C901.4999647036475 497.28914667823926 939.7499657648268 393.50414379890566 960.999966354371 365.7728930295506 " transform="rotate(68, 400, 400)"></path><path d="M-144.50005725860586 429.1496268848611C-123.87505668640125 411.82462640420925 -86.75005565643293 337.01774932882313 -45.50005451202372 345.9896245777321C-4.250053367614527 354.96149982664116 12.249947090149163 478.09275324270266 53.49994823455836 472.21462807962433C94.74994937896759 466.336502916546 111.24994983673128 325.818374018116 152.4999509811405 317.77462379495626C193.74995212554967 309.73087357179645 210.24995258331347 436.38900208570493 251.49995372772264 433.6046270084573C292.74995487213187 430.82025193120967 309.24995532989556 295.7471231838417 350.49995647430467 304.40962342416765C391.7499576187139 313.0721236644936 408.2499580764776 475.1846281620218 449.4999592208868 475.1846281620218C490.74996036529603 475.1846281620218 507.2499608230597 306.8846234928322 548.499961967469 304.40962342416765C589.7499631118781 301.9346233555031 606.2499635696417 448.7640024290277 647.499964714051 463.30462783243195C688.7499658584602 477.8452532358362 705.2499663162239 367.3983751716805 746.4999674606332 374.20462536050803C787.7499686050425 381.01087554933554 804.2499690628061 497.5215037817194 845.4999702072153 495.97462873880403C886.7499713516245 494.42775369588867 923.8749723815927 393.69525090124137 944.4999729537974 366.7796251545144 " transform="rotate(66, 400, 400)"></path><path d="M-128.0000573730468 428.2662368870777C-108.0000568181817 411.466236420991 -72.00005581942455 338.9262344084954 -32.00005470969441 347.6262346498617C7.999946400035725 356.326234891228 23.999946843927773 475.7262382037725 63.99994795365791 470.026238045636C103.99994906338804 464.3262378874994 119.99994950728012 328.0662341072037 159.9999506170103 320.2662338908063C199.99995172674045 312.4662336744089 215.99995217063253 435.28623708183534 255.99995328036272 432.5862370069285C295.9999543900928 429.88623693202175 311.9999548339848 298.9062332982104 351.9999559437149 307.3062335312537C391.9999570534451 315.70623376429705 407.99995749733716 472.90623812553656 447.99995860706736 472.90623812553656C487.99995971679755 472.90623812553656 503.9999601606895 309.7062335978375 543.9999612704197 307.3062335312537C583.9999623801498 304.9062334646699 599.9999628240419 447.2862374147544 639.999963933772 461.38623780593423C679.9999650435022 475.4862381971141 695.9999654873943 368.3862352258117 735.9999665971245 374.98623540891714C775.9999677068547 381.5862355920226 791.9999681507467 494.5662387264554 831.9999692604767 493.0662386848405C871.9999703702067 491.5662386432256 907.9999713689638 393.88623593326463 927.999971923829 367.7862352091657 " transform="rotate(64, 400, 400)"></path><path d="M-111.50002696990957 427.38294607142313C-92.12502643238403 411.10794561990167 -57.250025464838046 340.83481867029656 -18.500024389786972 349.26294390412016C20.2499766852641 357.69106913794377 35.74997711528454 473.35982234697127 74.49997819033561 467.8379471937765C113.24997926538663 462.31607204058173 128.7499796954072 330.3141933784202 167.49998077045825 322.75794316878523C206.2499818455093 315.20169295915025 221.74998227552976 434.1835712600946 260.49998335058086 431.56794618752866C299.24998442563185 428.95232111496273 314.74998485565226 302.065442594708 353.49998593070336 310.2029428204687C392.2499870057545 318.34044304622944 407.74998743577487 470.6279472711802 446.4999885108259 470.6279472711802C485.2499895858771 470.6279472711802 500.74999001589754 312.52794288497176 539.4999910909486 310.2029428204687C578.2499921659995 307.87794275596565 593.74999259602 445.80857158260994 632.4999936710711 459.4679469615654C671.2499947461223 473.12732234052095 686.7499951761426 369.37419446207167 725.4999962511938 375.7679446394551C764.2499973262449 382.1616948168386 779.7499977562654 491.61107285332037 818.4999988313162 490.1579478130059C857.2499999063673 488.7048227726915 892.1250008739135 394.07732014741674 911.5000014114389 368.7929444459459 " transform="rotate(62, 400, 400)"></path><path d="M-95.00002708435048 426.499617108796C-76.25002656416449 410.7496166718397 -42.50002562782966 342.7433647851251 -5.000024587457631 350.899615011406C32.499976452914325 359.05586523768693 47.49997686906315 470.99336834319735 84.99997790943516 465.64961819494437C122.4999789498072 460.30586804669133 137.49997936595605 332.5621145026641 174.999980406328 325.2496142997915C212.49998144670002 317.937114096919 227.49998186284887 433.08086729138125 264.9999829032209 430.54961722115615C302.4999839435929 428.01836715093106 317.49998435974163 305.2246137442329 354.9999854001137 313.09961396271103C392.4999864404856 320.9746141811891 407.49998685663445 468.34961826985113 444.99998789700646 468.34961826985113C482.4999889373785 468.34961826985113 497.4999893535273 315.3496140251333 534.9999903938993 313.09961396271103C572.4999914342714 310.84961390028866 587.49999185042 444.33086760349283 624.9999928907921 457.54961797022395C662.4999939311641 470.7683683369552 677.499994347313 370.36211555135907 714.9999953876851 376.54961572302045C752.4999964280571 382.73711589468184 767.499996844206 488.6558688332126 804.9999978845777 487.2496187941987C842.4999989249498 485.84336875518466 876.2499998612846 394.2683662145962 895.0000003814707 369.7996155357535 " transform="rotate(60, 400, 400)"></path><path d="M-78.49999668121328 425.6163110343524C-60.374996178366814 410.39131061196133 -27.749995273243144 344.65193378813717 8.500005732449779 352.5363090068754C44.75000673814273 360.4206842256136 59.25000714041991 468.6269372276071 95.50000814611283 463.46131208429586C131.75000915180578 458.2956869409846 146.25000955408302 334.81005851509155 182.50001055977594 327.7413083189814C218.75001156546887 320.6725581228713 233.2500119677461 431.9781862108515 269.500012973439 429.53131114296724C305.75001397913195 427.084436075083 320.25001438140913 308.3838077819414 356.50001538710205 315.9963079931369C392.75001639279503 323.60880820433243 407.25001679507216 466.07131215670574 443.50001780076514 466.07131215670574C479.7500188064581 466.07131215670574 494.25001920873524 318.17130805347847 530.5000202144282 315.9963079931369C566.7500212201211 313.8213079327953 581.2500216223982 442.8531865125594 617.5000226280912 455.63131186706613C653.7500236337842 468.40943722157294 668.2500240360614 371.35005952883006 704.5000250417545 377.3313096947694C740.7500260474475 383.3125598607087 755.2500264497245 485.7006877012884 791.5000274554174 484.34131266357497C827.7500284611102 482.9819376258614 860.3750293662339 394.4594351699593 878.5000298690804 370.8063095137446 " transform="rotate(58, 400, 400)"></path><path d="M-61.9999967956542 424.73297444233066C-44.49999631014727 410.03297403450483 -12.999995436234755 346.5604722735712 22.00000553477912 354.17297248476666C57.00000650579298 361.7854726959622 71.00000689419855 466.2604755944386 106.00000786521241 461.27297545606916C141.00000883622624 456.2854753176997 155.00000922463187 337.0579720099409 190.0000101956457 330.2329718205932C225.0000111666596 323.40797163124546 239.00001155506516 430.8754746127436 274.00001252607905 428.51297454720014C309.0000134970929 426.1504744816567 323.0000138854984 311.5429713020718 358.00001485651234 318.8929715059847C393.0000158275262 326.24297170989763 407.00001621593174 463.7929755259821 442.00001718694557 463.7929755259821C477.0000181579595 463.7929755259821 491.00001854636514 320.9929715642455 526.000019517379 318.8929715059847C561.0000204883927 316.79297144772386 575.0000208767983 441.3754749040478 610.0000218478123 453.71297524633013C645.0000228188261 466.0504755886126 659.0000232072317 372.33797298872287 694.0000241782457 378.11297314894017C729.0000251492595 383.8879733091575 743.000025537665 482.74547605178617 778.0000265086788 481.43297601537313C813.0000274796927 480.1204759789601 844.5000283536051 394.65047360774423 862.0000288391121 371.8129729741577 " transform="rotate(56, 400, 400)"></path><path d="M-45.49999691009512 423.84963022091443C-28.62499644192772 409.6746298276538 1.7500044007736335 348.4690031296106 35.500005337108405 355.80962833326345C69.2500062734432 363.15025353691624 82.75000664797716 463.89400633187563 116.50000758431196 459.08463119844794C150.25000852064676 454.27525606502024 163.7500088951807 339.3058778753957 197.5000098315155 332.72462769281043C231.2500107678503 326.14337751022515 244.75001114238427 429.77275538524117 278.50001207871907 427.4946303220386C312.25001301505387 425.216505258836 325.75001338958776 314.70212719280767 359.50001432592256 321.78962738943795C393.2500152622574 328.87712758606824 406.7500156367913 461.51463126586407 440.5000165731261 461.51463126586407C474.2500175094609 461.51463126586407 487.75001788399493 323.81462744561804 521.5000188203297 321.78962738943795C555.2500197566645 319.76462733325786 568.7500201311983 439.8977556661416 602.5000210675332 451.79463099619966C636.2500220038681 463.6915063262577 649.7500223784019 373.3258788192212 683.500023314737 378.89462897371646C717.2500242510717 384.46337912821167 730.7500246256056 479.7902567728894 764.5000255619403 478.5246317377768C798.2500264982751 477.25900670266424 828.6250273409764 394.8415044161346 845.5000278091438 372.8196288051762 " transform="rotate(54, 400, 400)"></path><path d="M-28.999997024536043 422.9663394052599C-12.749996573708174 409.3163390265645 16.500004237782008 350.3775873914118 49.00000513943775 357.4463375875219C81.50000604109349 364.51508778363205 94.5000064017558 461.5275904750744 127.00000730341151 456.8963403465885C159.50000820506722 452.26509021810256 172.50000856572956 341.55383714661224 205.00000946738533 335.21633697078937C237.50001036904104 328.8788367949665 250.50001072970338 428.6700895635005 283.00001163135914 426.4763395026387C315.50001253301485 424.28258944177696 328.50001289367714 317.86133648930524 361.00001379533285 324.68633667865294C393.50001469698856 331.5113368680006 406.5000150576509 459.23634041150774 439.00001595930667 459.23634041150774C471.50001686096243 459.23634041150774 484.5000172216247 326.6363367327523 517.0000181232805 324.68633667865294C549.5000190249361 322.7363366245536 562.5000193855984 438.4200898339972 595.0000202872542 449.87634015183085C627.50002118891 461.3325904696645 640.5000215495722 374.31383805548126 673.0000224512281 379.6763382042544C705.5000233528839 385.03883835302764 718.5000237135462 476.8350908997543 751.0000246152017 475.6163408659422C783.5000255168574 474.39759083213005 812.7500263283475 395.0325886302868 829.0000267791755 373.82633804195643 " transform="rotate(52, 400, 400)"></path><path d="M-12.499997138976966 422.0830218867245C3.125003294511373 408.9580215225943 31.250004074790382 352.2861449503321 62.50000494176706 359.08302013889954C93.75000580874374 365.87989532746695 106.25000615553441 459.16114791539235 137.50000702251106 454.7080227918482C168.75000788948773 450.254897668304 181.2500082362784 343.8017697149479 212.50000910325514 337.7080195458875C243.75000997023182 331.614269376827 256.2500103170225 427.5673970388789 287.50001118399916 425.458021980358C318.75001205097584 423.34864692183703 331.25001239776645 321.0205190829219 362.50001326474313 327.58301926498706C393.7500141317198 334.14551944705215 406.25001447851054 456.9580228542705 437.5000153454871 456.9580228542705C468.75001621246383 456.9580228542705 481.2500165592546 329.45801931700566 512.5000174262312 327.58301926498706C543.7500182932077 325.70801921296845 556.2500186399985 436.9423972989719 587.5000195069751 447.9580226045812C618.7500203739519 458.9736479101905 631.2500207207426 375.30177058886045 662.5000215877193 380.4580207319116C693.750022454696 385.6142708749627 706.2500228014866 473.87989832373836 737.5000236684632 472.7080232912267C768.7500245354398 471.53614825871506 796.8750253157189 395.22364614155805 812.5000257492072 374.83302057585576 " transform="rotate(50, 400, 400)"></path><path d="M4.000002746582112 421.1997196269782C19.00000316273092 408.59971927741316 46.00000391179877 354.19471776804147 76.00000474409637 360.7197179490662C106.00000557639396 367.2447181300909 118.00000590931302 456.7947206144993 148.00000674161063 452.5197204958969C178.00000757390825 448.24472037729447 190.0000079068273 346.04971754207264 220.00000873912495 340.19971737977465C250.00000957142254 334.3497172174766 262.0000099043416 426.4647197730464 292.0000107366392 424.4397197168663C322.00001156893677 422.4147196606862 334.00001190185577 324.1797169353277 364.0000127341534 330.4797171101102C394.000013566451 336.77971728489274 406.00001389937006 454.6797205558223 436.00001473166765 454.6797205558223C466.00001556396523 454.6797205558223 478.0000158968844 332.27971716004805 508.000016729182 330.4797171101102C538.0000175614796 328.6797170601724 550.0000178943985 435.4647200227357 580.0000187266962 446.0397203161206C610.0000195589939 456.6147206095055 622.0000198919129 376.28971838102865 652.0000207242106 381.2397185183578C682.0000215565082 386.1897186556869 694.0000218894272 470.9247210065115 724.0000227217247 469.7997209753003C754.0000235540223 468.67472094408913 781.0000243030902 395.41471891161837 796.0000247192389 375.8397183685442 " transform="rotate(48, 400, 400)"></path><path d="M20.50000263214119 420.3164021084428C34.87500303095045 408.241401773443 60.75000374880716 356.1032753269618 89.50000454642571 362.35640050044384C118.25000534404421 368.6095256739259 129.75000566309166 454.4282780548172 158.50000646071018 450.33140294115657C187.2500072583287 446.2345278274959 198.75000757737618 348.29765011040837 227.50000837499465 342.69139995487274C256.2500091726132 337.0851497993371 267.75000949166065 425.36202724842485 296.5000102892792 423.4214021945856C325.25001108689776 421.48077714074634 336.75001140594514 327.3388995289444 365.5000122035637 333.3763996964443C394.2500130011822 339.4138998639442 405.75001332022964 452.4014029985851 434.5000141178482 452.4014029985851C463.2500149154667 452.4014029985851 474.7500152345142 335.10139974430143 503.50001603213263 333.3763996964443C532.2500168297512 331.65139964858724 543.7500171487986 433.9870274877104 572.5000179464172 444.12140276887095C601.2500187440357 454.2557780500315 612.7500190630832 377.27765091440784 641.5000198607017 382.0214010460149C670.2500206583203 386.765151177622 681.7500209773677 467.96952843049553 710.5000217749862 466.89140340058486C739.2500225726047 465.81327837067414 765.1250232904615 395.6057764228897 779.5000236892707 376.8464009024436 " transform="rotate(46, 400, 400)"></path><path d="M37.00000251770027 419.4330655164211C50.75000289917 407.8830651959865 75.50000358581553 358.01181381239576 103.000004348755 363.9930639783351C130.50000511169446 369.97431414427444 141.5000054168703 452.06181642164876 169.00000617980973 448.1430663129299C196.5000069427492 444.22431620421105 207.50000724792503 350.5455636052577 235.00000801086446 345.1830634564845C262.500008773804 339.8205633077113 273.5000090789798 424.259315650317 301.0000098419193 422.40306559881856C328.50001060485874 420.54681554732014 339.5000109100345 330.4980630490748 367.000011672974 336.2730632092921C394.50001243591345 342.0480633695094 405.5000127410893 450.12306636786155 433.0000135040287 450.12306636786155C460.5000142669682 450.12306636786155 471.50001457214404 337.9230632550685 499.0000153350834 336.2730632092921C526.5000160980228 334.6230631635157 537.5000164031987 432.5093158791988 565.0000171661382 442.20306614813495C592.5000179290777 451.89681641707114 603.5000182342535 378.26556437430065 631.000018997193 382.8030645001857C658.5000197601325 387.3405646260707 669.5000200653083 465.0143167809933 697.0000208282477 463.983066752383C724.5000215911871 462.95181672377277 749.2500222778326 395.7968148606746 763.0000226593024 377.85306436285657 " transform="rotate(44, 400, 400)"></path><path d="M53.500002403259344 418.54972892439935C66.62500276738955 407.52472861853 90.25000342282394 359.92035229782977 116.50000415108434 365.62972745622636C142.75000487934471 371.339102614623 153.25000517064888 449.69535478848036 179.5000058989093 445.95472968470324C205.7500066271697 442.2141045809261 216.2500069184739 352.79347710010705 242.50000764673428 347.67472695809624C268.75000837499465 342.5559768160855 279.25000866629887 423.1566040522091 305.5000093945593 421.38472900305146C331.7500101228197 419.61285395389393 342.25001041412384 333.6572265692052 368.5000111423842 339.1697267221399C394.75001187064464 344.68222687507455 405.25001216194886 447.844729737138 431.50001289020923 447.844729737138C457.7500136184696 447.844729737138 468.2500139097739 340.74472676583554 494.5000146380342 339.1697267221399C520.7500153662945 337.59472667844426 531.2500156575986 431.03160427068724 557.5000163858592 440.284729527399C583.7500171141196 449.5378547841108 594.2500174054237 379.2534778341935 620.5000181336842 383.5847279543565C646.7500188619447 387.91597807451944 657.2500191532488 462.05910513149104 683.5000198815092 461.07473010418124C709.7500206097695 460.09035507687145 733.3750212652039 395.9878532984595 746.5000216293341 378.8597278232696 " transform="rotate(42, 400, 400)"></path><path d="M70.00000228881842 417.6664228499558C82.50000263560909 407.1664225586516 105.00000325983231 361.82892130084184 130.00000395341365 367.2664214516958C155.00000464699497 372.7039216025497 165.00000492442751 447.32892367289 190.00000561800886 443.76642357405467C215.0000063115902 440.20392347521937 225.00000658902275 355.0414211125345 250.00000728260406 350.1664209772862C275.00000797618543 345.2914208420378 285.000008253618 422.0539229716793 310.0000089471993 420.36642292486255C335.00000964078066 418.6789228780458 345.00000991821315 336.8164206069137 370.0000106117945 342.0664207525658C395.00001130537584 347.31642089821787 405.0000115828084 445.56642362399253 430.0000122763897 445.56642362399253C455.000012969971 445.56642362399253 465.0000132474036 343.56642079418066 490.00001394098496 342.0664207525658C515.0000146345662 340.5664207109509 525.0000149119987 429.5539231797537 550.0000156055801 438.36642342424113C575.0000162991615 447.17892366872854 585.000016576594 380.2414218116645 610.0000172701755 384.36642192610543C635.0000179637568 388.49142204054635 645.0000182411893 459.10392399956686 670.0000189347705 458.1664239735576C695.0000196283519 457.2289239475482 717.5000202525752 396.17892225382263 730.0000205993658 379.8664218012608 " transform="rotate(40, 400, 400)"></path><path d="M86.5000021743775 416.7830862579341C98.37500250382864 406.8080859811951 119.7500030968407 363.73745978627585 143.50000375574297 368.90308492958707C167.25000441464522 374.06871007289834 176.75000467820615 444.96246203972163 200.5000053371084 441.57808694582803C224.25000599601069 438.1937118519345 233.75000625957162 357.28933460738386 257.5000069184739 352.65808447889793C281.2500075773762 348.026834350412 290.7500078409371 420.9512113735714 314.5000084998394 419.3480863290955C338.2500091587416 417.7449612846196 347.7500094223025 339.9755841270441 371.5000100812048 344.9630842654136C395.25001074010703 349.95058440378307 404.75001100366796 443.288086993269 428.5000116625702 443.288086993269C452.2500123214725 443.288086993269 461.75001258503346 346.3880843049477 485.5000132439357 344.9630842654136C509.2500139028379 343.53808422587946 518.7500141663988 428.0762115712421 542.5000148253012 436.44808680350513C566.2500154842035 444.8199620357682 575.7500157477643 381.2293352715574 599.5000164066666 385.14808538027626C623.250017065569 389.06683548899514 632.7500173291298 456.1487123500646 656.500017988032 455.25808732535575C680.2500186469343 454.3674623006469 701.6250192399464 396.36996069160756 713.5000195693975 380.87308526167385 " transform="rotate(38, 400, 400)"></path><path d="M103.00000205993659 415.89977255409593C114.25000237204819 406.4497722919222 134.5000029338491 365.6460211598934 157.00000355807228 370.539771295662C179.50000418229547 375.4335214314305 188.5000044319848 442.59602329473677 211.00000505620795 439.389773205785C233.50000568043117 436.18352311683316 242.50000593012047 359.5372709904168 265.0000065543437 355.1497708686933C287.5000071785669 350.76227074696976 296.5000074282562 419.84852266364715 319.0000080524794 418.32977262151206C341.5000086767026 416.811022579377 350.50000892639184 343.1347705353581 373.00000955061506 347.85977066644494C395.5000101748383 352.58477079753186 404.5000104245276 441.00977325072904 427.00001104875076 441.00977325072904C449.500011672974 441.00977325072904 458.5000119226633 349.20977070389836 481.00001254688647 347.85977066644494C503.50001317110963 346.5097706289916 512.5000134207988 426.5985228509141 535.0000140450221 434.52977307095273C557.5000146692455 442.4610232909914 566.5000149189347 382.2172716196338 589.0000155431579 385.9297717226306C611.5000161673811 389.64227182562746 620.5000164170704 453.1935235887459 643.0000170412935 452.34977356533756C665.5000176655168 451.50602354192915 685.7500182273176 396.5610220175761 697.0000185394292 381.87977161027044 " transform="rotate(36, 400, 400)"></path><path d="M119.50000194549567 415.01643977677145C130.12500224026775 406.0914395291629 149.25000277085746 367.55456346002467 170.5000033604016 372.1764385882505C191.75000394994572 376.79831371647634 200.2500041857634 440.22956547626563 221.50000477530753 437.20144039225556C242.75000536485166 434.1733153082455 251.25000560066934 361.7851882999634 272.50000619021347 357.6414381850023C293.75000677975765 353.4976880700412 302.2500070155753 418.7458148802365 323.50000760511944 417.31143984044223C344.75000819466356 415.87706480064804 353.2500084304812 346.29393787018574 374.50000902002535 350.75643799399C395.7500096095695 355.21893811779427 404.2500098453871 438.73144043470273 425.50001043493126 438.73144043470273C446.75001102447544 438.73144043470273 455.2500112602931 352.0314380293627 476.5000118498372 350.75643799399C497.7500124393813 349.48143795861733 506.25001267519895 425.1208150570997 527.5000132647431 432.61144026491405C548.7500138542873 440.1020654727283 557.250014090105 383.2051888942239 578.5000146796492 386.7114389914987C599.7500152691933 390.21768908877345 608.250015505011 450.2383157539409 629.500016094555 449.441440731833C650.7500166840991 448.6445657097251 669.8750172146888 396.7520642700583 680.5000175094609 382.88643888538076 " transform="rotate(34, 400, 400)"></path><path d="M136.00000183105476 414.1331184435388C146.00000210848728 405.7331182104955 164.00000260786584 369.4631172042477 184.00000316273093 373.81311732493083C204.00000371759597 378.163117445614 212.000003939542 437.86311910188624 232.00000449440708 435.013119022818C252.00000504927215 432.16311894374974 260.0000052712182 364.0331170536018 280.0000058260833 360.1331169454031C300.0000063809483 356.2331168372045 308.00000660289436 417.64311854091767 328.00000715775946 416.29311850346426C348.00000771262455 414.9431184660109 356.00000793457053 349.4531166491052 376.0000084894356 353.65311676562686C396.00000904430067 357.8531168821485 404.0000092662467 436.4531190627683 424.0000098211118 436.4531190627683C444.0000103759769 436.4531190627683 452.0000105979229 354.8531167989188 472.000011152788 353.65311676562686C492.000011707653 352.45311673233493 500.00001192959905 423.6431187073772 520.0000124844642 430.6931189029671C540.0000130393292 437.74311909855703 548.0000132612753 384.19311761290584 568.0000138161404 387.49311770445854C588.0000143710055 390.7931177960113 596.0000145929514 447.2831193632277 616.0000151478165 446.53311934242026C636.0000157026815 445.7831193216128 654.00001620206 396.9431179666323 664.0000164794926 383.89311760458287 " transform="rotate(32, 400, 400)"></path><path d="M152.49998645782478 413.2498199984898C161.87498671791775 405.37481978001165 178.74998718608518 371.37169383665434 197.49998770627118 375.4498189497948C216.24998822645716 379.52794406293526 223.7499884345316 435.49669561569044 242.4999889547176 432.824820541564C261.2499894749036 430.15294546743746 268.749989682978 366.2810686954238 287.499990203164 362.6248185939876C306.24999072335004 358.9685684925513 313.74999093142446 416.54044508978245 332.4999914516104 415.2748200546699C351.2499919717965 414.0091950195573 358.7499921798708 352.61231831620825 377.49999270005685 356.5498184254473C396.2499932202428 360.4873185346864 403.7499934283172 434.17482057901736 422.49999394850323 434.17482057901736C441.24999446868924 434.17482057901736 448.74999467676366 357.67481845665844 467.49999519694967 356.5498184254473C486.2499957171357 355.4248183942361 493.74999592521 422.1654452458382 512.499996445396 428.77482042920377C531.2499969655821 435.3841956125694 538.7499971736565 385.1810692197713 557.4999976938425 388.274819305602C576.2499982140286 391.36856939143274 583.749998422103 444.3279458606981 602.4999989422888 443.62482084119114C621.2499994624749 442.9216958216841 638.1249999306423 397.1341945513899 647.5000001907354 384.8998192119685 " transform="rotate(30, 400, 400)"></path><path d="M168.99998634338385 412.3664910358626C177.7499865861373 405.0164908319497 193.49998702309355 373.2802399514828 210.9999875086005 377.0864900570806C228.4999879941074 380.89274016267836 235.49998818831023 433.1302416119166 252.99998867381714 430.63649154273185C270.49998915932406 428.1427414735471 277.49998935352687 368.5289898196677 294.9999898390338 365.11648972499387C312.4999903245407 361.70398963032 319.4999905187435 415.43774112106905 336.99999100425043 414.25649108829737C354.49999148975735 413.0752410555256 361.49999168396016 355.77148946573317 378.9999921694671 359.44648956768964C396.49999265497405 363.12148966964605 403.4999928491768 431.8964915776883 420.9999933346837 431.8964915776883C438.4999938201907 431.8964915776883 445.4999940143935 360.49648959682 462.9999944999004 359.44648956768964C480.4999949854073 358.3964895385592 487.4999951796101 420.68774126672116 504.99999566511707 426.85649143786236C522.4999961506239 433.02524160900356 529.4999963448267 386.1689903090587 546.9999968303338 389.0564903891674C564.4999973158407 391.943990469276 571.4999975100434 441.3727418405904 588.9999979955503 440.71649182238383C606.4999984810572 440.0602418041773 622.2499989180135 397.3252406185694 630.999999160767 385.9064903017761 " transform="rotate(28, 400, 400)"></path><path d="M185.49998622894293 411.4831620732354C193.62498645435684 404.6581618838877 208.24998686010196 375.18878606631137 224.4999873109298 378.72316116436645C240.74998776175767 382.25753626242147 247.24998794208884 430.7637876081427 263.4999883929167 428.4481625438997C279.7499888437445 426.1325374796567 286.2499890240757 370.7769109439116 302.4999894749036 367.60816085600015C318.7499899257315 364.43941076808875 325.2499901060626 414.3350371523557 341.4999905568905 413.2381621219248C357.74999100771834 412.14128709149395 364.24999118804953 358.9306606152581 380.49999163887736 362.3431607099319C396.7499920897052 365.7556608046058 403.2499922700364 429.61816257635934 419.49999272086427 429.61816257635934C435.74999317169215 429.61816257635934 442.2499933520233 363.3181607369816 458.4999938028512 362.3431607099319C474.749994253679 361.36816068288226 481.24999443401015 419.21003728760405 497.49999488483803 424.9381624465209C513.749995335666 430.66628760543773 520.249995515997 387.1569113983461 536.499995966825 389.8381614727327C552.7499964176529 392.51941154711926 559.249996597984 438.4175378204826 575.4999970488118 437.8081628035766C591.7499974996397 437.1987877866705 606.3749979053847 397.51628668574887 614.4999981307988 386.9131613915837 " transform="rotate(26, 400, 400)"></path><path d="M201.999986114502 410.5998483693973C209.49998632257638 404.2998481946148 222.99998669711033 377.09734743992897 237.99998711325912 380.3598475304413C252.99998752940792 383.6223476209537 258.99998769586745 428.39734886315784 273.99998811201624 426.25984880385664C288.9999885281651 424.12234874455544 294.99998869462456 373.02484732694455 309.9999891107734 370.0998472457955C324.9999895269222 367.1748471646465 330.99998969338174 413.23234844243143 345.99999010953053 412.21984841434136C360.9999905256793 411.20734838625134 366.9999906921388 362.0898470235721 381.99999110828765 365.2398471109633C396.99999152443644 368.3898471983546 402.99999169089597 427.33984883381936 417.99999210704476 427.33984883381936C432.99999252319355 427.33984883381936 438.99999268965314 366.13984713593226 453.99999310580193 365.2398471109633C468.9999935219507 364.3398470859944 474.9999936884102 417.73234856727606 489.99999410455905 423.0198487139685C504.9999945207079 428.30734886066097 510.9999946871674 388.14484774642256 525.9999951033162 390.6198478150871C540.9999955194651 393.09484788375164 546.9999956859245 435.46234905916396 561.9999961020733 434.89984904355833C576.9999965182221 434.33734902795277 590.499996892756 397.7073480117174 597.9999971008303 387.91984774018033 " transform="rotate(24, 400, 400)"></path><path d="M218.49998600006109 409.7165308508619C225.37498619079594 403.94153069064464 237.7499865341187 379.00590499884925 251.49998691558844 381.99653008181895C265.24998729705817 384.9871551647886 270.7499874496461 426.0309063034758 284.4999878311158 424.07153124911633C298.24998821258555 422.1121561947569 303.74998836517346 375.2727798952802 317.49998874664317 372.5915298208936C331.24998912811293 369.910279746507 336.74998928070085 412.1296559178098 350.4999896621706 411.20153089206065C364.2499900436403 410.2734058663114 369.74999019622817 365.2490296171888 383.49999057769793 368.1365296972974C397.2499909591677 371.02402977740604 402.74999111175555 425.0615312765821 416.49999149322525 425.0615312765821C430.24999187469507 425.0615312765821 435.74999202728293 368.9615297201856 449.49999240875263 368.1365296972974C463.24999279022234 367.31152967440926 468.7499929428103 416.25465603225075 482.49999332428 421.10153116671887C496.2499937057498 425.94840630118694 501.7499938583377 389.1327802798017 515.4999942398074 391.4015303427442C529.2499946212772 393.67028040568675 534.7499947738651 432.50715648314804 548.4999951553348 431.9915314688429C562.2499955368045 431.4759064545378 574.6249958801272 397.8984055229887 581.4999960708622 388.92653027407965 " transform="rotate(22, 400, 400)"></path><path d="M234.99998588562016 408.8332133323265C241.2499860590155 403.5832131866744 252.49998637112708 380.9144625577696 264.99998671791775 383.63321263319654C277.4999870647084 386.3519627086235 282.49998720342467 423.66446374379365 294.99998755021534 421.88321369437597C307.499987897006 420.1019636449583 312.4999880357223 377.5207124636159 324.999988382513 375.0832123959917C337.49998872930365 372.64571232836755 342.49998886801995 411.0269633931883 354.9999892148106 410.18321336977993C367.4999895616013 409.33946334637153 372.49998970031754 368.40821221080546 384.9999900471082 371.03321228363154C397.4999903938989 373.65821235645757 402.49999053261513 422.78321371934493 414.9999908794058 422.78321371934493C427.49999122619647 422.78321371934493 432.4999913649127 371.78321230443896 444.9999917117034 371.03321228363154C457.49999205849406 370.2832122628241 462.4999921972103 414.7769634972255 474.999992544001 419.1832136194692C487.4999928907917 423.5894637417129 492.49999302950795 390.1207128131809 504.9999933762987 392.18321287040135C517.4999937230893 394.2457129276218 522.4999938618056 429.55196390713206 534.9999942085963 429.0832138941274C547.4999945553868 428.61446388112273 558.7499948674986 398.08946303425995 564.9999950408939 389.93321280797903 " transform="rotate(20, 400, 400)"></path><path d="M251.49998577117924 407.94988436969936C257.124985927235 403.22488423861245 267.2499862081355 382.82300867259806 278.4999865202471 385.2698837404823C289.7499868323587 387.71675880836665 294.2499869572033 421.2980097400198 305.49998726931494 419.69488469554386C316.7499875814265 418.09175965106795 321.24998770627116 379.76863358785977 332.4999880183828 377.574883526998C343.7499883304944 375.38113346613625 348.249988455339 409.92425942447494 359.49998876745065 409.16488440340737C370.7499890795622 408.40550938233986 375.24998920440686 371.5673833603304 386.49998951651844 373.92988342587387C397.7499898286301 376.2923834914173 402.2499899534747 420.5048847180159 413.49999026558635 420.5048847180159C424.74999057769793 420.5048847180159 429.2499907025426 374.60488344460055 440.49999101465414 373.92988342587387C451.7499913267658 373.25488340714713 456.24999145161036 413.2992595181084 467.499991763722 417.26488462812773C478.7499920758337 421.2305097381471 483.24999220067826 391.1086339024683 494.4999925127899 392.9648839539667C505.7499928249015 394.82113400546507 510.2499929497461 426.59675988702435 521.4999932618578 426.1748848753201C532.7499935739693 425.75300986361594 542.8749938548697 398.2805091014394 548.4999940109255 390.9398838977866 " transform="rotate(18, 400, 400)"></path><path d="M267.9999856567383 407.0665630364667C272.99998579545456 402.866562919945 281.9999860451438 384.73156241682113 291.99998632257643 386.9065624771627C301.9999866000089 389.0815625375043 305.99998671098194 418.9315633656404 315.9999869884145 417.50656332610623C325.99998726584704 416.08156328657213 329.99998737682006 382.0165623414982 339.99998765425255 380.0665622873988C349.9999879316851 378.1165622332995 353.9999880426581 408.8215630851561 363.99998832009067 408.1465630664294C373.9999885975232 407.4715630477027 377.9999887084962 374.72656213924984 387.9999889859287 376.8265621975107C397.9999892633613 378.9265622557715 401.9999893743343 418.2265633460814 411.99998965176684 418.2265633460814C421.9999899291994 418.2265633460814 425.9999900401724 377.42656221415666 435.9999903176049 376.8265621975107C445.99999059503745 376.22656218086473 449.99999070601046 411.82156316838586 459.999990983443 415.34656326618085C469.99999126087556 418.8715633639758 473.9999913718486 392.09656262115016 483.9999916492811 393.74656266692654C493.9999919267137 395.3965627127029 497.99999203768664 423.6415634963111 507.9999923151192 423.2665634859074C517.9999925925517 422.8915634755037 526.999992842241 398.4715627980134 531.9999929809572 391.9465626169887 " transform="rotate(16, 400, 400)"></path><path d="M284.50000080108646 406.1832493326286C288.8750009224632 402.5082492306721 296.7500011409413 386.6401237904387 305.5000013836948 388.54324884323756C314.25000162644824 390.44637389603645 317.75000172354964 416.5651246206555 326.5000019663031 415.3182495860632C335.25000220905656 414.0713745514708 338.75000230615797 384.2644987245311 347.5000025489114 382.55824867719423C356.2500027916649 380.8519986298573 359.7500028887663 407.7188743752318 368.50000313151975 407.12824935884595C377.2500033742732 406.53762434246005 380.7500034713746 377.8857485475638 389.50000371412807 379.72324859854206C398.2500039568815 381.5607486495203 401.75000405398293 415.94824960354146 410.5000042967364 415.94824960354146C419.25000453948985 415.94824960354146 422.75000463659126 380.2482486131073 431.5000048793447 379.72324859854206C440.2500051220982 379.19824858397686 443.7500052191996 410.3438744480578 452.50000546195304 413.42824953362845C461.2500057047065 416.512624619199 464.7500058018079 393.0844989692266 473.5000060445614 394.52824900928096C482.2500062873149 395.97199904933524 485.7500063844162 420.68637473499246 494.5000066271697 420.3582497258892C503.25000686992314 420.0301247167859 511.1250070884013 398.66262412398197 515.500007209778 392.9532489655853 " transform="rotate(14, 400, 400)"></path><path d="M301.00000068664554 405.2999241846986C304.75000079068275 402.1499240973074 311.5000009779497 388.5486737199645 319.00000118602406 390.1799237652207C326.5000013940985 391.8111738104768 329.5000014773283 414.1986744315789 337.00000168540265 413.12992440192835C344.5000018934771 412.0611743722777 347.5000019767068 386.51242366347225 355.00000218478124 385.0499236228978C362.50000239285566 383.58742358232325 365.5000024760854 406.6161742212157 373.00000268415977 406.1099242071707C380.5000028922342 405.60367419312564 383.50000297546393 381.044923511786 391.00000318353835 382.61992355548165C398.5000033916127 384.1949235991773 401.5000034748425 413.6699244169097 409.00000368291694 413.6699244169097C416.5000038909913 413.6699244169097 419.5000039742211 383.0699235679661 427.00000418229547 382.61992355548165C434.5000043903699 382.1699235429972 437.50000447359963 408.86617428363803 445.00000468167406 411.50992435698424C452.5000048897485 414.15367443033045 455.5000049729782 394.0724238732113 463.00000518105264 395.3099239075435C470.50000538912707 396.5474239418758 473.5000054723568 417.73117452958195 481.0000056804312 417.44992452177917C488.5000058885056 417.1686745139764 495.25000607577255 398.8536740058587 499.0000061798097 393.95992387009017 " transform="rotate(12, 400, 400)"></path><path d="M317.5000005722046 404.41660666616326C320.6250006589023 401.79160659333724 326.25000081495807 390.45723127888476 332.5000009883534 391.81660631659827C338.75000116174874 393.1759813543118 341.25000123110686 411.83223187189685 347.5000014045022 410.941606847188C353.75000157789754 410.0509818224792 356.25000164725566 388.7603562318079 362.50000182065105 387.54160619799586C368.75000199404633 386.32285616418375 371.2500020634045 405.5134816965941 377.50000223679984 405.09160668488994C383.7500024101952 404.66973167318577 386.2500024795533 384.20410610540273 392.50000265294864 385.51660614181577C398.750002826344 386.8291061782288 401.2500028957021 411.39160685967244 407.50000306909743 411.39160685967244C413.75000324249277 411.39160685967244 416.2500033118509 385.8916061522195 422.5000034852462 385.51660614181577C428.75000365864156 385.14160613141206 431.2500037279997 407.3884817486127 437.500003901395 409.59160680973457C443.75000407479035 411.7947318708565 446.25000414414853 395.0603564065905 452.50000431754387 396.0916064352007C458.7500044909392 397.1228564638109 461.2500045602973 414.77598195356603 467.50000473369266 414.5416069470637C473.75000490708794 414.3072319405614 479.3750050631438 399.04473151712995 482.50000514984146 394.96660640398954 " transform="rotate(10, 400, 400)"></path><path d="M334.0000004577637 403.53328533293063C336.5000005271218 401.4332852746698 341.00000065196645 392.36578502310783 346.00000079068275 393.4532850532786C351.000000929399 394.5407850834494 353.0000009848855 409.46578549751746 358.0000011236018 408.7532854777504C363.00000126231805 408.0407854579833 365.00000131780456 391.0082849854464 370.0000014565208 390.0332849583967C375.0000015952371 389.05828493134703 377.00000165072356 404.4107853572753 382.00000178943986 404.07328534791196C387.00000192815617 403.7357853385486 389.0000019836426 387.3632848843222 394.00000212235886 388.4132849134526C399.00000226107517 389.463284942583 401.0000023165617 409.113285487738 406.0000024552779 409.113285487738C411.0000025939942 409.113285487738 413.00000264948073 388.7132849217756 418.000002788197 388.4132849134526C423.0000029269132 388.11328490512966 425.0000029823998 405.9107853988902 430.00000312111604 407.6732854477877C435.0000032598323 409.4357854966852 437.00000331531885 396.04828512527234 442.0000034540351 396.87328514816056C447.00000359275134 397.6982851710487 449.00000364823785 411.82078556285285 454.00000378695415 411.63328555765094C459.0000039256704 411.4457855524491 463.50000405051503 399.235785213704 466.00000411987315 395.9732851231916 " transform="rotate(8, 400, 400)"></path><path d="M350.4999965286255 402.6499620923493C352.3749965806441 401.0749620486537 355.74999667427755 394.2743368599822 359.49999677831477 395.08996188261034C363.249996882352 395.9055869052384 364.7499969239669 407.09933721578943 368.49999702800403 406.56496220096415C372.24999713204124 406.03058718613886 373.74999717365614 393.25621183173615 377.49999727769335 392.52496181144886C381.24999738173057 391.7937117911616 382.74999742334546 403.30808711060786 386.4999975273826 403.05496210358535C390.24999763141983 402.80183709656285 391.7499976730347 390.522461755893 395.49999777707194 391.3099617777408C399.2499978811091 392.09746179958864 400.749997922724 406.83496220845484 404.4999980267612 406.83496220845484C408.2499981307984 406.83496220845484 409.74999817241326 391.5349617839831 413.49999827645047 391.3099617777408C417.2499983804877 391.08496177149857 418.7499984221025 404.433087141819 422.49999852613973 405.7549621784921C426.24999863017695 407.07683721516526 427.74999867179184 397.03621193660564 431.49999877582906 397.65496195377176C435.24999887986627 398.27371197093794 436.74999892148116 408.865587264791 440.4999990255183 408.7249622608896C444.24999912955553 408.5843372569882 447.624999223189 399.42683700292935 449.4999992752076 396.9799619350451 " transform="rotate(6, 400, 400)"></path><path d="M366.9999964141846 401.7666407591167C368.2499964488636 400.71664072998624 370.499996511286 396.1828906042053 372.9999965806441 396.72664061929066C375.49999665000223 397.27039063437604 376.49999667774546 404.7328908414101 378.99999674710364 404.3766408315266C381.49999681646176 404.02039082164305 382.49999684420504 395.50414058537456 384.9999969135631 395.01664057184973C387.4999969829213 394.52914055832485 388.4999970106645 402.20539077128905 390.9999970800227 402.0366407666073C393.4999971493808 401.86789076192565 394.49999717712404 393.68164053481246 396.99999724648217 394.20664054937765C399.49999731584035 394.7316405639429 400.4999973435836 404.55664083652033 402.9999974129417 404.55664083652033C405.4999974822998 404.55664083652033 406.4999975100431 394.35664055353914 408.9999975794012 394.20664054937765C411.49999764875935 394.05664054521617 412.49999767650263 402.95539079209647 414.99999774586075 403.8366408165452C417.4999978152189 404.71789084099396 418.49999784296216 398.02414065528757 420.9999979123203 398.43664066673165C423.4999979816784 398.84914067817573 424.4999980094217 405.9103908740778 426.9999980787798 405.81664087147686C429.49999814813793 405.72289086887594 431.74999821056025 399.61789069950333 432.99999824523934 397.9866406542472 " transform="rotate(4, 400, 400)"></path><path d="M383.5000001144409 400.88332133323263C384.12500013178044 400.35832131866744 385.2500001629916 398.091446255777 386.5000001976707 398.3633212633197C387.75000023234975 398.63519627086237 388.25000024622136 402.3664463743794 389.50000028090045 402.1883213694376C390.75000031557954 402.0101963644958 391.25000032945115 397.7520712463616 392.5000003641302 397.5083212395992C393.7500003988093 397.2645712328368 394.2500004126809 401.1026963393188 395.50000044736 401.018321336978C396.750000482039 400.93394633463714 397.2500004959106 396.84082122108055 398.5000005305897 397.10332122836314C399.7500005652688 397.36582123564574 400.2500005791404 402.2783213719345 401.50000061381945 402.2783213719345C402.75000064849854 402.2783213719345 403.2500006623702 397.1783212304439 404.50000069704924 397.10332122836314C405.7500007317283 397.0283212262824 406.25000074559995 401.4776963497226 407.50000078027904 401.91832136194694C408.75000081495807 402.3589463741713 409.2500008288297 399.0120712813181 410.5000008635088 399.2183212870401C411.75000089818786 399.42457129276215 412.2500009120595 402.9551963907132 413.5000009467385 402.9083213894127C414.7500009814176 402.86144638811226 415.8750010126288 399.808946303426 416.5000010299683 398.9933212807979 " transform="rotate(2, 400, 400)"></path></g></svg>